<svg xmlns="http://www.w3.org/2000/svg" viewBox="0 0 16 16"><defs><style>.a{fill:#5a5a5a;}.b{opacity:0.8;}</style></defs><title>Chrome-IconDisabled</title><path class="a" d="M2.29,7.75A5.94,5.94,0,0,0,5.41,13.3a6.3,6.3,0,0,0,1.53.57,5.67,5.67,0,0,0,.91.15v2a7.86,7.86,0,0,1-1.42-.21,8.45,8.45,0,0,1-1.55-.54A8.22,8.22,0,0,1,2.74,13.8,9,9,0,0,1,2,13a7.95,7.95,0,0,1,2-11.7L2.76,0H7V4.52L5.41,2.82A5.93,5.93,0,0,0,2.29,7.75Z"/><g class="b"><path class="a" d="M8,7a1,1,0,0,1,.7.29,1,1,0,0,1,0,1.41A1,1,0,0,1,8,9a1,1,0,0,1-.7-.29,1,1,0,0,1,0-1.41A1,1,0,0,1,8,7M8,6A2,2,0,0,0,6,8a2,2,0,0,0,2,2,2,2,0,0,0,2-2A2,2,0,0,0,8,6Z"/></g><path class="a" d="M13.71,8.25A5.94,5.94,0,0,0,10.59,2.7a6.3,6.3,0,0,0-1.53-.57A5.67,5.67,0,0,0,8.15,2V0A7.86,7.86,0,0,1,9.57.21a8.45,8.45,0,0,1,1.55.54A8.22,8.22,0,0,1,13.26,2.2,9,9,0,0,1,14,3a7.95,7.95,0,0,1-2,11.7L13.24,16H9V11.48l1.59,1.7A5.93,5.93,0,0,0,13.71,8.25Z"/></svg>