<svg xmlns="http://www.w3.org/2000/svg" viewBox="0 0 16 16"><defs><style>.a{fill:#0a84ff;}</style></defs><title>IconEnabled</title><path class="a" d="M2.37,7.83a5.93,5.93,0,0,0,1.47,4.24,6.13,6.13,0,0,0,1.65,1.32A6.72,6.72,0,0,0,7,14c.36.08.67.12.9.15v2a8.18,8.18,0,0,1-3-.75,8.11,8.11,0,0,1-2.13-1.45,5.94,5.94,0,0,1-.71-.78,7.92,7.92,0,0,1,2-11.69C3.71,1,3.28.52,2.85.08H7.08V4.6L5.49,2.91A6,6,0,0,0,2.37,7.83Z"/><path class="a" d="M8.08,9.58a1.48,1.48,0,0,1-1-.43,1.5,1.5,0,0,1,1-2.57A1.52,1.52,0,0,1,9.14,7,1.5,1.5,0,0,1,8.08,9.58Z"/><path class="a" d="M8.08,7.08A1,1,0,0,1,8.8,8.79a1,1,0,0,1-.72.29,1,1,0,0,1,0-2m0-1a2,2,0,0,0-1.42.6A2,2,0,0,0,6.08,8.1a2,2,0,0,0,.6,1.41,2,2,0,0,0,1.4.57,2,2,0,0,0,1.43-.59,2,2,0,0,0,0-2.83,2,2,0,0,0-1.41-.58Z"/><path class="a" d="M13.79,8.33a5.94,5.94,0,0,0-3.12-5.55,6.57,6.57,0,0,0-1.53-.57,5.75,5.75,0,0,0-.9-.15v-2A8.87,8.87,0,0,1,9.65.29a7.82,7.82,0,0,1,1.56.55,7.81,7.81,0,0,1,2.13,1.45,8.87,8.87,0,0,1,.71.77,7.95,7.95,0,0,1-2,11.7l1.29,1.32H9.08V11.56l1.6,1.7A5.94,5.94,0,0,0,13.79,8.33Z"/></svg>